<?xml version="1.0" encoding="iso-8859-1"?>
<!-- Generator: Adobe Illustrator 18.0.0, SVG Export Plug-In . SVG Version: 6.00 Build 0)  -->
<!DOCTYPE svg PUBLIC "-//W3C//DTD SVG 1.1//EN" "http://www.w3.org/Graphics/SVG/1.1/DTD/svg11.dtd">
<svg version="1.1" id="Capa_1" xmlns="http://www.w3.org/2000/svg" xmlns:xlink="http://www.w3.org/1999/xlink" x="0px" y="0px"
	 viewBox="0 0 297 297" style="enable-background:new 0 0 297 297;" xml:space="preserve">
<g>
	<path d="M127.397,120.35l1.909,1.546c2.154,1.744,2.485,4.903,0.742,7.056c-0.992,1.225-2.441,1.86-3.902,1.86
		c-1.109,0-2.225-0.365-3.154-1.118l-0.498-0.404c-0.281,0.669-0.553,1.343-0.804,2.025l2.679,1.807
		c2.297,1.549,2.903,4.668,1.354,6.965c-0.969,1.436-2.553,2.213-4.164,2.213c-0.83,0-1.662-0.219-2.427-0.646
		c-0.083,0.608-0.166,1.217-0.227,1.83h1.561c2.771,0,5.017,2.246,5.017,5.017s-2.246,5.017-5.017,5.017h-1.561
		c0.061,0.617,0.145,1.229,0.228,1.841c2.253-1.256,5.12-0.621,6.59,1.555c1.549,2.297,0.943,5.415-1.354,6.965l-2.679,1.807
		c0.251,0.682,0.523,1.355,0.804,2.025l0.498-0.403c2.154-1.745,5.313-1.413,7.056,0.742c1.744,2.153,1.412,5.312-0.742,7.056
		l-1.909,1.546c0.339,0.489,0.696,0.967,1.054,1.445c6.73-8.013,10.794-18.336,10.794-29.595c0-11.259-4.064-21.583-10.794-29.596
		C128.093,119.383,127.736,119.861,127.397,120.35z"/>
	<path d="M119.583,182.978l-1.645,1.332c-0.929,0.753-2.045,1.118-3.154,1.118c-1.462,0-2.91-0.635-3.902-1.86
		c-1.744-2.153-1.412-5.312,0.742-7.056l2.803-2.27c-0.444-0.926-0.862-1.863-1.256-2.811l-0.93,0.627
		c-0.86,0.58-1.835,0.858-2.8,0.858c-1.612,0-3.194-0.776-4.164-2.213c-1.549-2.297-0.943-5.415,1.354-6.965l3.399-2.293
		c-0.569-2.595-0.964-5.243-1.185-7.93h-2.034c-2.771,0-5.017-2.246-5.017-5.017s2.246-5.017,5.017-5.017h2.034
		c0.221-2.688,0.615-5.335,1.185-7.93l-3.399-2.292c-2.297-1.549-2.903-4.668-1.354-6.965c1.549-2.297,4.668-2.902,6.965-1.354
		l0.929,0.627c0.394-0.948,0.812-1.885,1.256-2.811l-2.803-2.27c-2.154-1.744-2.485-4.903-0.742-7.056
		c1.744-2.155,4.903-2.485,7.056-0.742l1.645,1.332c0.506-0.71,1.022-1.414,1.561-2.104c-7.766-5.955-17.468-9.506-27.988-9.506
		c-10.52,0-20.221,3.551-27.987,9.506c0.539,0.69,1.055,1.394,1.561,2.104l1.645-1.332c2.154-1.744,5.313-1.413,7.056,0.742
		c1.744,2.153,1.412,5.312-0.742,7.056l-2.803,2.27c0.444,0.926,0.862,1.863,1.256,2.811l0.929-0.626
		c2.299-1.549,5.417-0.941,6.965,1.354c1.549,2.297,0.943,5.416-1.354,6.965l-3.398,2.292c0.569,2.596,0.964,5.243,1.185,7.931
		h2.034c2.771,0,5.017,2.246,5.017,5.017s-2.246,5.017-5.017,5.017h-2.034c-0.221,2.688-0.616,5.335-1.185,7.931l3.398,2.292
		c2.297,1.55,2.903,4.668,1.354,6.965c-0.969,1.436-2.553,2.213-4.164,2.213c-0.965,0-1.94-0.278-2.8-0.858l-0.929-0.627
		c-0.394,0.948-0.812,1.885-1.256,2.81l2.803,2.27c2.154,1.743,2.486,4.902,0.742,7.056c-0.992,1.224-2.441,1.86-3.902,1.86
		c-1.109,0-2.225-0.365-3.154-1.118l-1.645-1.332c-0.506,0.71-1.022,1.414-1.561,2.104c7.766,5.955,17.467,9.506,27.987,9.506
		c10.52,0,20.222-3.551,27.988-9.506C120.605,184.393,120.089,183.688,119.583,182.978z"/>
	<path d="M58.916,176.651l-1.909-1.546c-2.154-1.743-2.486-4.902-0.742-7.056c1.745-2.153,4.903-2.486,7.056-0.742l0.499,0.404
		c0.281-0.67,0.553-1.343,0.804-2.025l-2.679-1.807c-2.297-1.55-2.903-4.668-1.354-6.965c1.468-2.177,4.338-2.811,6.591-1.555
		c0.084-0.612,0.167-1.224,0.228-1.842h-1.561c-2.771,0-5.017-2.246-5.017-5.017s2.246-5.017,5.017-5.017h1.561
		c-0.061-0.614-0.144-1.222-0.227-1.831c-0.766,0.427-1.599,0.646-2.428,0.646c-1.612,0-3.195-0.776-4.164-2.213
		c-1.549-2.297-0.943-5.416,1.354-6.965l2.679-1.807c-0.251-0.681-0.523-1.355-0.804-2.024l-0.499,0.404
		c-0.929,0.753-2.045,1.118-3.154,1.118c-1.462,0-2.91-0.635-3.902-1.86c-1.744-2.153-1.412-5.312,0.742-7.056l1.91-1.546
		c-0.339-0.489-0.696-0.967-1.054-1.445c-6.73,8.013-10.794,18.337-10.794,29.596c0,11.259,4.064,21.582,10.794,29.595
		C58.22,177.618,58.577,177.14,58.916,176.651z"/>
	<path d="M296.324,223.929l-8.799-22.732l8.799-22.732c0.901-2.33,0.901-4.913-0.001-7.244l-8.797-22.727l8.797-22.726
		c0.902-2.331,0.902-4.914,0-7.245l-8.797-22.726l8.797-22.726c1.195-3.087,0.791-6.564-1.08-9.294
		c-1.871-2.73-4.967-4.362-8.277-4.362H10.034C4.493,59.415,0,63.908,0,69.449v158.102c0,5.541,4.493,10.034,10.034,10.034h276.932
		c3.31,0,6.406-1.632,8.277-4.362C297.114,230.492,297.518,227.016,296.324,223.929z M93.156,211.646
		c-34.818,0-63.145-28.327-63.145-63.145c0-34.819,28.327-63.146,63.145-63.146c34.819,0,63.146,28.327,63.146,63.146
		C156.303,183.319,127.976,211.646,93.156,211.646z M238.47,226.506c-1.876,1.866-4.455,2.94-7.094,2.94s-5.228-1.074-7.094-2.94
		c-1.866-1.876-2.94-4.455-2.94-7.104c0-2.639,1.074-5.228,2.94-7.094c1.867-1.867,4.455-2.94,7.094-2.94s5.228,1.073,7.094,2.94
		c1.866,1.867,2.94,4.455,2.94,7.094C241.409,222.051,240.335,224.63,238.47,226.506z M231.376,201.08
		c-5.538,0-10.034-4.495-10.034-10.034c0-5.538,4.496-10.034,10.034-10.034c5.539,0,10.034,4.496,10.034,10.034
		C241.409,196.585,236.915,201.08,231.376,201.08z M231.376,172.715c-5.538,0-10.034-4.496-10.034-10.034
		c0-5.539,4.496-10.034,10.034-10.034c5.539,0,10.034,4.495,10.034,10.034C241.409,168.219,236.915,172.715,231.376,172.715z
		 M231.376,144.349c-5.538,0-10.034-4.485-10.034-10.034c0-5.538,4.496-10.023,10.034-10.023c5.539,0,10.034,4.485,10.034,10.023
		C241.409,139.864,236.915,144.349,231.376,144.349z M231.376,115.994c-5.538,0-10.034-4.495-10.034-10.034
		c0-5.548,4.496-10.034,10.034-10.034c5.539,0,10.034,4.486,10.034,10.034C241.409,111.499,236.915,115.994,231.376,115.994z
		 M238.47,84.688c-1.867,1.867-4.455,2.941-7.094,2.941s-5.228-1.074-7.094-2.941c-1.866-1.866-2.94-4.454-2.94-7.093
		c0-2.639,1.074-5.228,2.94-7.094c1.867-1.867,4.455-2.94,7.094-2.94s5.228,1.073,7.094,2.94c1.866,1.867,2.94,4.455,2.94,7.094
		C241.409,80.234,240.335,82.813,238.47,84.688z"/>
</g>
<g>
</g>
<g>
</g>
<g>
</g>
<g>
</g>
<g>
</g>
<g>
</g>
<g>
</g>
<g>
</g>
<g>
</g>
<g>
</g>
<g>
</g>
<g>
</g>
<g>
</g>
<g>
</g>
<g>
</g>
</svg>
