<?xml version="1.0" encoding="iso-8859-1"?>
<!-- Generator: Adobe Illustrator 18.0.0, SVG Export Plug-In . SVG Version: 6.00 Build 0)  -->
<!DOCTYPE svg PUBLIC "-//W3C//DTD SVG 1.1//EN" "http://www.w3.org/Graphics/SVG/1.1/DTD/svg11.dtd">
<svg version="1.1" id="Capa_1" xmlns="http://www.w3.org/2000/svg" xmlns:xlink="http://www.w3.org/1999/xlink" x="0px" y="0px"
	 viewBox="0 0 296.999 296.999" style="enable-background:new 0 0 296.999 296.999;" xml:space="preserve">
<g>
	<path d="M55.107,94.347c61.109,16.15,125.68,16.151,186.76,0.007c9.66-2.515,19.435-2.523,28.495-0.426
		c-7.817-11.521-23.345-17.102-38.491-13.156c-54.532,14.411-112.206,14.414-166.768-0.007c-3.261-0.849-6.544-1.256-9.761-1.256
		c-11.698,0-22.548,5.387-28.677,14.41C35.713,91.83,45.469,91.838,55.107,94.347z"/>
	<path d="M231.871,147.201c-54.534,14.414-112.208,14.413-166.768-0.007c-3.261-0.849-6.543-1.256-9.761-1.256
		c-13.775,0-26.4,7.452-31.491,19.54c-2.607,6.163-2.221,13.257,1.084,19.987c4.537,9.239,13.636,16.251,24.965,19.237
		c64.506,17.049,132.694,17.05,197.194,0.001l0.005-0.001c11.329-2.986,20.428-9.999,24.965-19.24
		c3.305-6.729,3.69-13.822,1.089-19.974C266.868,150.567,249.124,142.711,231.871,147.201z"/>
	<path d="M198.163,126.443c9.321-1.828,13.021-6.045,17.057-11.878c-12.809,2.284-25.717,3.895-38.667,4.851
		C183.02,124.335,187.851,127.848,198.163,126.443z"/>
	<path d="M98.831,126.442c10.312,1.402,15.14-2.109,21.608-7.027c-12.948-0.957-25.855-2.568-38.664-4.852
		C85.811,120.396,89.51,124.613,98.831,126.442z"/>
	<path d="M287.261,163.384c2.563-2.797,4.718-5.891,6.361-9.239c4.003-8.153,4.463-16.768,1.296-24.255
		c-7.551-17.926-28.822-27.378-49.499-21.995c-2.714,0.717-5.437,1.393-8.163,2.048c-3.796,2.679-6.204,6.222-8.998,10.352
		c-4.313,6.373-9.526,14.069-20.992,18.143c7.061-1.35,14.083-2.938,21.052-4.78C252.281,127.418,278.299,142.106,287.261,163.384z"
		/>
	<path d="M193.681,140.736c-12.323-0.081-19.788-5.751-25.956-10.444c-5.856-4.457-10.456-7.983-19.054-7.759
		c-0.117,0.002-0.238,0.002-0.355,0c-8.595-0.228-13.195,3.302-19.052,7.758c-6.176,4.699-13.661,10.368-26.014,10.433
		C133.22,145.101,163.717,145.105,193.681,140.736z"/>
	<path d="M9.738,163.386c8.957-21.267,34.984-35.962,58.918-29.733c6.973,1.843,14,3.432,21.063,4.783
		c-11.459-4.075-16.671-11.769-20.981-18.141c-2.795-4.13-5.202-7.674-8.997-10.352c-2.734-0.658-5.465-1.335-8.186-2.054
		c-3.899-1.016-7.824-1.502-11.673-1.502c-16.523,0-31.676,8.962-37.796,23.493c-3.173,7.499-2.712,16.114,1.292,24.27
		C5.021,157.497,7.175,160.589,9.738,163.386z"/>
</g>
<g>
</g>
<g>
</g>
<g>
</g>
<g>
</g>
<g>
</g>
<g>
</g>
<g>
</g>
<g>
</g>
<g>
</g>
<g>
</g>
<g>
</g>
<g>
</g>
<g>
</g>
<g>
</g>
<g>
</g>
</svg>
