<?xml version="1.0" encoding="iso-8859-1"?>
<!-- Generator: Adobe Illustrator 18.0.0, SVG Export Plug-In . SVG Version: 6.00 Build 0)  -->
<!DOCTYPE svg PUBLIC "-//W3C//DTD SVG 1.1//EN" "http://www.w3.org/Graphics/SVG/1.1/DTD/svg11.dtd">
<svg version="1.1" id="Capa_1" xmlns="http://www.w3.org/2000/svg" xmlns:xlink="http://www.w3.org/1999/xlink" x="0px" y="0px"
	 viewBox="0 0 297 297" style="enable-background:new 0 0 297 297;" xml:space="preserve">
<g>
	<path d="M36.732,0c-5.497,0-9.97,4.473-9.97,9.97v277.06c0,5.497,4.473,9.97,9.97,9.97s9.97-4.473,9.97-9.97V9.97
		C46.702,4.473,42.229,0,36.732,0z"/>
	<path d="M186.175,65.803l1.514,1.226c1.802,1.458,2.079,4.102,0.62,5.904c-0.829,1.024-2.042,1.556-3.264,1.556
		c-0.929,0-1.862-0.305-2.64-0.936l-0.328-0.266c-0.208,0.499-0.413,1-0.601,1.508l2.152,1.451c1.923,1.296,2.43,3.906,1.133,5.827
		c-0.811,1.202-2.136,1.851-3.485,1.851c-0.659,0-1.32-0.163-1.933-0.484c-0.058,0.434-0.121,0.867-0.165,1.304h1.199
		c2.318,0,4.198,1.88,4.198,4.198c0,2.318-1.88,4.198-4.198,4.198h-1.199c0.045,0.441,0.108,0.878,0.167,1.316
		c1.868-0.977,4.207-0.437,5.416,1.354c1.296,1.922,0.789,4.531-1.133,5.827l-2.152,1.451c0.188,0.508,0.393,1.008,0.601,1.508
		l0.328-0.266c1.802-1.457,4.446-1.181,5.904,0.62c1.459,1.803,1.182,4.446-0.62,5.904l-1.514,1.226
		c0.601,0.863,1.247,1.701,1.918,2.521c5.898-6.919,9.47-15.878,9.47-25.661s-3.572-18.742-9.47-25.661
		C187.422,64.102,186.776,64.94,186.175,65.803z"/>
	<path d="M132.263,101.639c-1.923-1.296-2.43-3.906-1.133-5.827c1.206-1.79,3.548-2.334,5.416-1.355
		c0.059-0.438,0.122-0.875,0.166-1.316h-1.199c-2.318,0-4.198-1.88-4.198-4.198c0-2.318,1.88-4.198,4.198-4.198h1.199
		c-0.044-0.437-0.107-0.87-0.165-1.304c-0.613,0.32-1.274,0.484-1.933,0.484c-1.349,0-2.673-0.648-3.485-1.851
		c-1.296-1.922-0.789-4.531,1.133-5.827l2.152-1.451c-0.188-0.508-0.393-1.008-0.601-1.508l-0.328,0.266
		c-0.778,0.629-1.712,0.936-2.64,0.936c-1.223,0-2.435-0.532-3.264-1.556c-1.459-1.803-1.182-4.446,0.62-5.904l1.514-1.226
		c-0.601-0.863-1.247-1.701-1.918-2.521c-5.898,6.919-9.47,15.878-9.47,25.661s3.572,18.742,9.47,25.661
		c0.672-0.821,1.317-1.658,1.918-2.521l-1.514-1.226c-1.802-1.458-2.079-4.102-0.62-5.904c1.459-1.801,4.103-2.08,5.904-0.62
		l0.328,0.266c0.208-0.499,0.413-1,0.601-1.508L132.263,101.639z"/>
	<path d="M178.351,118.418c-0.778,0.629-1.712,0.936-2.64,0.936c-1.223,0-2.435-0.532-3.264-1.556
		c-1.459-1.803-1.182-4.446,0.62-5.904l2.256-1.827c-0.342-0.716-0.667-1.438-0.973-2.17l-0.685,0.462
		c-0.719,0.485-1.535,0.717-2.343,0.717c-1.349,0-2.673-0.648-3.485-1.851c-1.296-1.922-0.789-4.531,1.134-5.827l2.747-1.853
		c-0.458-2.097-0.777-4.235-0.958-6.404h-1.599c-2.318,0-4.198-1.88-4.198-4.198c0-2.318,1.88-4.198,4.198-4.198h1.599
		c0.181-2.17,0.5-4.308,0.958-6.404l-2.747-1.853c-1.923-1.296-2.43-3.906-1.134-5.827c1.296-1.922,3.906-2.43,5.827-1.134
		l0.685,0.462c0.306-0.731,0.631-1.454,0.973-2.17l-2.256-1.827c-1.802-1.458-2.079-4.102-0.62-5.904
		c1.458-1.802,4.103-2.079,5.904-0.62l1.288,1.043c0.74-1.035,1.525-2.043,2.35-3.025c-6.673-5.113-15.007-8.16-24.044-8.16
		s-17.371,3.047-24.044,8.16c0.825,0.982,1.61,1.991,2.35,3.025l1.288-1.043c1.803-1.457,4.446-1.182,5.904,0.62
		c1.459,1.803,1.182,4.446-0.62,5.904l-2.256,1.827c0.342,0.716,0.667,1.438,0.973,2.17l0.685-0.462
		c1.922-1.294,4.53-0.79,5.827,1.134c1.296,1.922,0.789,4.531-1.134,5.827l-2.747,1.853c0.458,2.097,0.777,4.235,0.958,6.404h1.599
		c2.318,0,4.198,1.88,4.198,4.198c0,2.318-1.88,4.198-4.198,4.198h-1.599c-0.181,2.17-0.5,4.308-0.958,6.404l2.747,1.853
		c1.923,1.296,2.43,3.906,1.134,5.827c-0.811,1.202-2.136,1.851-3.485,1.851c-0.808,0-1.623-0.232-2.343-0.717l-0.685-0.462
		c-0.306,0.732-0.631,1.454-0.973,2.17l2.256,1.827c1.802,1.458,2.079,4.102,0.62,5.904c-0.829,1.024-2.042,1.556-3.264,1.556
		c-0.929,0-1.862-0.305-2.64-0.936l-1.288-1.043c-0.74,1.035-1.525,2.043-2.35,3.025c6.673,5.113,15.007,8.16,24.044,8.16
		s17.371-3.047,24.044-8.16c-0.825-0.982-1.61-1.991-2.35-3.025L178.351,118.418z"/>
	<path d="M253.181,88.943l16.807-67.229c0.627-2.508,0.064-5.165-1.527-7.203c-1.591-2.038-4.032-3.229-6.618-3.229H61.394v155.322
		h200.449c2.586,0,5.027-1.191,6.618-3.229c1.591-2.037,2.154-4.695,1.527-7.203L253.181,88.943z M157.945,139.055
		c-27.632,0-50.112-22.481-50.112-50.112s22.481-50.112,50.112-50.112s50.112,22.481,50.112,50.112S185.577,139.055,157.945,139.055
		z"/>
</g>
<g>
</g>
<g>
</g>
<g>
</g>
<g>
</g>
<g>
</g>
<g>
</g>
<g>
</g>
<g>
</g>
<g>
</g>
<g>
</g>
<g>
</g>
<g>
</g>
<g>
</g>
<g>
</g>
<g>
</g>
</svg>
