<?xml version="1.0" encoding="iso-8859-1"?>
<!-- Generator: Adobe Illustrator 18.0.0, SVG Export Plug-In . SVG Version: 6.00 Build 0)  -->
<!DOCTYPE svg PUBLIC "-//W3C//DTD SVG 1.1//EN" "http://www.w3.org/Graphics/SVG/1.1/DTD/svg11.dtd">
<svg version="1.1" id="Capa_1" xmlns="http://www.w3.org/2000/svg" xmlns:xlink="http://www.w3.org/1999/xlink" x="0px" y="0px"
	 viewBox="0 0 297 297" style="enable-background:new 0 0 297 297;" xml:space="preserve">
<g>
	<path d="M258.496,275.075c-3.657-2.081-15.579-6.89-19.294-8.126c-8.252-2.747-26.537-7.229-41.005-10.635l-46.329,23.165
		c-1.06,0.53-2.214,0.795-3.368,0.795s-2.308-0.265-3.368-0.795l-46.329-23.165c-14.468,3.407-32.754,7.889-41.004,10.635
		c-3.716,1.237-13.797,5.042-19.296,8.127c-4.571,2.565-9.671,12.618-11.612,21.924h243.218
		C268.169,287.694,263.053,277.667,258.496,275.075z"/>
	<path d="M154.106,236.308h-11.212c-6.144,0-12.126-0.695-17.89-1.974v9.957c0,2.703-1.44,5.123-3.661,6.455l27.158,13.579
		l27.158-13.579c-2.221-1.332-3.661-3.752-3.661-6.455v-9.957C166.232,235.612,160.25,236.308,154.106,236.308z"/>
	<path d="M184.993,84.719c1.178,0.201,2.333,0.412,3.475,0.627c-2.303-49.314-27.053-62.676-30.068-64.122h-18.007
		c-3.029,1.453-27.935,14.909-30.089,64.64C140.225,79.939,166.166,81.506,184.993,84.719z M145.548,47.369l3.848-11.843
		l3.848,11.843h12.453l-10.074,7.319l3.848,11.843l-10.074-7.32l-10.074,7.32l3.848-11.843l-10.074-7.319H145.548z"/>
	<path d="M116.596,21.84c-23.503,3.733-41.527,24.134-41.527,48.671v25.508c6.819-2.601,13.513-4.769,20.056-6.569
		C95.78,54.67,106.468,33.837,116.596,21.84z"/>
	<path d="M114.361,123.284c28.574-3.64,53.986-1.975,70.272,0.061c13.381,1.676,23.392-2.336,24.94-4.252
		c2.037-2.522,8.906-9.426,8.906-9.426c-7.875-3.198-20.522-7.512-36.656-10.21c-23.819-3.983-60.011-5.08-101.169,10.561
		c0,0,6.594,6.618,8.542,9.042C90.75,120.992,100.854,125.003,114.361,123.284z"/>
	<path d="M223.724,95.522V70.511c0-24.537-18.025-44.938-41.527-48.671c10.068,11.925,20.684,32.586,21.455,66.991
		C211.832,91.05,218.605,93.458,223.724,95.522z"/>
	<path d="M221.639,153.715v-25.607l-0.014,0.014c-5.512,7.354-18.317,10.668-30.642,10.668c-2.794,0-5.563-0.171-8.218-0.502
		c-15.427-1.931-39.486-3.508-66.499-0.067c-14.468,1.847-34.111-2.923-40.905-11.986v27.479c0,37.238,30.295,67.533,67.533,67.533
		h11.212C191.344,221.248,221.639,190.953,221.639,153.715z"/>
	<path d="M64.979,167.468v-38.719c-19.36,0-19.36,9.665-19.36,12.841C45.619,152.89,55.007,167.468,64.979,167.468z"/>
	<path d="M251.381,141.59c0-3.176,0-12.841-19.36-12.841v38.719C241.993,167.468,251.381,152.89,251.381,141.59z"/>
	<path d="M158.078,8.682c0-4.788-3.894-8.682-8.682-8.682c-4.788,0-8.682,3.894-8.682,8.682l0,0L158.078,8.682L158.078,8.682z"/>
</g>
<g>
</g>
<g>
</g>
<g>
</g>
<g>
</g>
<g>
</g>
<g>
</g>
<g>
</g>
<g>
</g>
<g>
</g>
<g>
</g>
<g>
</g>
<g>
</g>
<g>
</g>
<g>
</g>
<g>
</g>
</svg>
