<?xml version="1.0" encoding="iso-8859-1"?>
<!-- Generator: Adobe Illustrator 18.0.0, SVG Export Plug-In . SVG Version: 6.00 Build 0)  -->
<!DOCTYPE svg PUBLIC "-//W3C//DTD SVG 1.1//EN" "http://www.w3.org/Graphics/SVG/1.1/DTD/svg11.dtd">
<svg version="1.1" id="Capa_1" xmlns="http://www.w3.org/2000/svg" xmlns:xlink="http://www.w3.org/1999/xlink" x="0px" y="0px"
	 viewBox="0 0 297 297" style="enable-background:new 0 0 297 297;" xml:space="preserve">
<g>
	<path d="M148.5,146.725c-5.073,0-9.201,4.127-9.201,9.2c0,5.073,4.127,9.201,9.201,9.201s9.201-4.127,9.201-9.201
		C157.701,150.852,153.573,146.725,148.5,146.725z"/>
	<path d="M148.5,242.664c-7.592,0-13.769,6.176-13.769,13.769c0,7.592,6.177,13.769,13.769,13.769s13.769-6.177,13.769-13.769
		C162.269,248.84,156.092,242.664,148.5,242.664z"/>
	<path d="M294.789,87.295c-80.664-80.662-211.913-80.662-292.578,0c-2.793,2.794-2.961,7.27-0.383,10.264l33.176,38.553
		L144.37,69.357c2.398-1.463,5.41-1.474,7.818-0.03l110.32,66.192l32.664-37.959C297.75,94.565,297.582,90.089,294.789,87.295z"/>
	<path d="M148.337,84.628L44.985,147.712l79.624,92.531c5.199-7.647,13.968-12.681,23.892-12.681s18.693,5.034,23.892,12.681
		l80.122-93.109L148.337,84.628z M148.5,180.227c-13.401,0-24.302-10.902-24.302-24.302c0-13.4,10.902-24.301,24.302-24.301
		s24.302,10.902,24.302,24.301C172.802,169.325,161.901,180.227,148.5,180.227z"/>
</g>
<g>
</g>
<g>
</g>
<g>
</g>
<g>
</g>
<g>
</g>
<g>
</g>
<g>
</g>
<g>
</g>
<g>
</g>
<g>
</g>
<g>
</g>
<g>
</g>
<g>
</g>
<g>
</g>
<g>
</g>
</svg>
